<?xml version="1.0" standalone="no"?>
<!DOCTYPE svg PUBLIC "-//W3C//DTD SVG 20010904//EN"
 "http://www.w3.org/TR/2001/REC-SVG-20010904/DTD/svg10.dtd">
<svg version="1.0" xmlns="http://www.w3.org/2000/svg"
 width="512.000000pt" height="512.000000pt" viewBox="0 0 512.000000 512.000000"
 preserveAspectRatio="xMidYMid meet">

<g transform="translate(0.000000,512.000000) scale(0.100000,-0.100000)"
fill="#000000" stroke="none">
<path d="M1600 5100 c-19 -19 -20 -33 -20 -225 l0 -205 -173 0 c-219 0 -217 1
-217 -111 l0 -79 -250 0 c-237 0 -251 -1 -270 -20 -20 -20 -20 -33 -20 -2224
l0 -2205 22 -15 c20 -14 216 -16 1894 -16 l1871 0 19 21 c19 21 19 72 19 2219
0 2147 0 2198 -19 2219 -18 20 -28 21 -268 21 l-248 0 0 69 c0 54 -4 74 -21
95 l-20 26 -174 0 -174 0 -3 204 c-3 184 -5 206 -22 225 -24 26 -60 27 -86 1
-19 -19 -20 -33 -20 -225 l0 -205 -173 0 c-211 0 -207 2 -207 -113 l0 -77
-475 0 -475 0 0 69 c0 54 -4 74 -21 95 l-20 26 -169 0 -169 0 -3 204 c-3 184
-5 206 -22 225 -24 26 -60 27 -86 1z m360 -670 l0 -120 -322 2 -323 3 -3 104
c-1 58 0 111 2 118 4 10 70 13 326 13 l320 0 0 -120z m1848 -3 l3 -117 -323 2
-323 3 -3 104 c-1 58 0 111 2 118 5 11 66 13 323 11 l318 -3 3 -118z m-2618
-139 c0 -105 -32 -98 445 -98 334 0 415 3 430 14 14 10 20 30 23 80 l4 66 474
0 474 0 0 -62 c0 -105 -32 -98 445 -98 334 0 415 3 430 14 14 10 20 30 23 80
l4 66 204 0 204 0 0 -2110 0 -2110 -1785 0 -1785 0 0 2110 0 2110 205 0 205 0
0 -62z"/>
<path d="M1236 3738 c-14 -20 -16 -143 -16 -1125 0 -1090 0 -1103 20 -1123 20
-20 33 -20 1323 -20 1251 0 1305 1 1320 18 16 17 17 110 17 1129 0 1063 -1
1111 -18 1126 -17 16 -123 17 -1325 17 l-1306 0 -15 -22z m2542 -1120 l2
-1018 -1215 0 -1215 0 0 1020 0 1020 1213 -2 1212 -3 3 -1017z"/>
<path d="M2720 3243 c-8 -3 -173 -61 -366 -129 l-351 -124 -192 0 c-291 0
-281 11 -281 -297 l0 -222 30 -34 30 -35 0 -181 c0 -233 -9 -221 169 -221 124
0 130 1 148 23 10 13 40 101 68 196 40 138 52 170 65 165 8 -3 169 -60 358
-126 424 -149 392 -153 392 52 l0 139 58 6 c95 11 126 23 165 63 46 47 57 84
57 190 0 160 -55 225 -203 240 l-72 7 -3 130 c-2 118 -4 132 -23 148 -22 18
-25 19 -49 10z m-50 -548 c0 -217 -2 -395 -5 -395 -5 0 -364 126 -547 192
l-28 10 0 193 0 193 43 16 c155 58 514 184 525 185 9 1 12 -84 12 -394z m-710
0 l0 -165 -155 0 -155 0 0 165 0 165 155 0 155 0 0 -165z m958 109 c20 -13 22
-22 22 -97 0 -45 -4 -88 -9 -95 -9 -15 -69 -31 -113 -32 l-28 0 0 118 c0 65 3
122 6 125 10 10 97 -4 122 -19z m-1033 -431 c-3 -16 -21 -77 -39 -138 l-32
-110 -47 -3 -47 -3 0 140 0 141 86 0 86 0 -7 -27z"/>
<path d="M3264 2997 c-67 -18 -129 -39 -138 -46 -25 -21 -21 -77 8 -96 22 -15
34 -13 172 22 133 34 150 41 164 66 13 24 13 30 0 55 -22 38 -59 38 -206 -1z"/>
<path d="M3155 2735 c-14 -13 -25 -31 -25 -40 0 -9 11 -27 25 -40 24 -25 26
-25 215 -25 189 0 191 0 215 25 31 30 32 55 2 83 -22 21 -32 22 -216 22 -190
0 -192 0 -216 -25z"/>
<path d="M3132 2524 c-26 -18 -30 -75 -7 -94 15 -12 265 -79 298 -80 24 0 57
36 57 63 0 40 -33 57 -172 93 -155 39 -147 38 -176 18z"/>
<path d="M1230 1070 c-11 -11 -20 -31 -20 -45 0 -14 9 -34 20 -45 20 -20 33
-20 1328 -20 1452 0 1352 -5 1352 65 0 70 100 65 -1352 65 -1295 0 -1308 0
-1328 -20z"/>
<path d="M1227 602 c-22 -24 -21 -65 1 -85 17 -16 124 -17 1335 -17 1449 0
1347 -5 1347 60 0 65 102 60 -1349 60 -1264 0 -1319 -1 -1334 -18z"/>
</g>
</svg>
